<?xml version="1.0" standalone="no"?>
<!DOCTYPE svg PUBLIC "-//W3C//DTD SVG 20010904//EN"
 "http://www.w3.org/TR/2001/REC-SVG-20010904/DTD/svg10.dtd">
<svg version="1.0" xmlns="http://www.w3.org/2000/svg"
 width="80.000000pt" height="80.000000pt" viewBox="0 0 80.000000 80.000000"
 preserveAspectRatio="xMidYMid meet">
<metadata>
Created by potrace 1.14, written by Peter Selinger 2001-2017
</metadata>
<g transform="translate(0.000000,80.000000) scale(0.100000,-0.100000)"
fill="#000000" stroke="none">
<path d="M20 780 c-19 -19 -20 -33 -20 -380 0 -347 1 -361 20 -380 19 -19 33
-20 380 -20 347 0 361 1 380 20 19 19 20 33 20 380 0 347 -1 361 -20 380 -19
19 -33 20 -380 20 -347 0 -361 -1 -380 -20z m501 -163 c68 -46 79 -119 26
-172 -31 -31 -31 -33 -12 -41 29 -13 65 -73 65 -108 0 -47 -31 -99 -70 -118
-29 -15 -62 -18 -182 -18 -139 0 -148 1 -148 19 0 13 9 21 30 26 l30 7 0 188
0 188 -30 6 c-21 4 -30 11 -30 26 0 19 6 20 144 20 132 0 146 -2 177 -23z"/>
<path d="M320 516 l0 -76 73 0 c64 0 76 3 95 23 27 29 28 67 3 98 -16 20 -30
24 -95 27 l-76 4 0 -76z"/>
<path d="M320 294 l0 -86 86 3 c76 4 88 7 105 28 25 31 24 82 -2 115 -19 24
-26 26 -105 26 l-84 0 0 -86z"/>
</g>
</svg>
