<?xml version="1.0" encoding="UTF-8" standalone="no"?>
<!DOCTYPE svg PUBLIC "-//W3C//DTD SVG 1.1//EN" "http://www.w3.org/Graphics/SVG/1.1/DTD/svg11.dtd">
<svg width="100%" height="100%" viewBox="0 0 80 80" version="1.1" xmlns="http://www.w3.org/2000/svg" xmlns:xlink="http://www.w3.org/1999/xlink" xml:space="preserve" xmlns:serif="http://www.serif.com/" style="fill-rule:evenodd;clip-rule:evenodd;stroke-linejoin:round;stroke-miterlimit:2;">
    <g transform="matrix(0.1,0,0,-0.1,0,80)">
        <path d="M521,617C490,638 476,640 344,640C206,640 200,639 200,620C200,605 209,598 230,594L260,588L260,212L230,205C209,200 200,192 200,179C200,161 209,160 348,160C468,160 501,163 530,178C569,197 600,249 600,296C600,331 564,391 535,404C516,412 516,414 547,445C600,498 589,571 521,617Z" style="fill:white;"/>
        <path d="M20,780C1,761 0,747 0,400C0,53 1,39 20,20C39,1 53,0 400,0C747,0 761,1 780,20C799,39 800,53 800,400C800,747 799,761 780,780C761,799 747,800 400,800C53,800 39,799 20,780ZM521,617C589,571 600,498 547,445C516,414 516,412 535,404C564,391 600,331 600,296C600,249 569,197 530,178C501,163 468,160 348,160C209,160 200,161 200,179C200,192 209,200 230,205L260,212L260,588L230,594C209,598 200,605 200,620C200,639 206,640 344,640C476,640 490,638 521,617Z" style="fill:rgb(20,49,78);fill-rule:nonzero;"/>
        <path d="M320,592L320,440L393,440C457,440 469,443 488,463C515,492 516,530 491,561C475,581 461,585 396,588L320,592Z" style="fill:rgb(20,49,78);fill-rule:nonzero;"/>
        <path d="M320,380L320,208L406,211C482,215 494,218 511,239C536,270 535,321 509,354C490,378 483,380 404,380L320,380Z" style="fill:rgb(20,49,78);fill-rule:nonzero;"/>
    </g>
</svg>
